<svg xmlns="http://www.w3.org/2000/svg" viewBox="0 0 169.11 234.51"><defs><style>.cls-1{fill:#fff;}.cls-2{fill:#f7a729;}</style></defs><g id="Layer_2" data-name="Layer 2"><g id="a"><path class="cls-1" d="M84.56,0a84.56,84.56,0,0,0,0,169.12h4.25a56.43,56.43,0,0,0,14.4-1.54l-.08-9,0-4.78v-1.25a54.71,54.71,0,0,1-5.39,1.25,69.58,69.58,0,0,1-26.26,0,67,67,0,0,1-10.55-2.84,63.57,63.57,0,0,1-6.17-2.55,70.48,70.48,0,1,1,72.81-8,68.37,68.37,0,0,1-17.89,10.05l.11,9.54.08,5.45c33.67-11.16,59.29-43.45,59.29-80.82A84.64,84.64,0,0,0,84.55,0h0Z"/><path class="cls-1" d="M103.2,167.14v56.65a10.68,10.68,0,0,1-10.63,10.72h-16a10.68,10.68,0,0,1-10.63-10.72V177.41H78.56v39a5.34,5.34,0,0,0,5.32,5.36h.88a5.34,5.34,0,0,0,5.32-5.36V167.14Z"/><circle class="cls-2" cx="87.11" cy="87.7" r="11.92"/><ellipse class="cls-2" cx="56.57" cy="59.71" rx="5.21" ry="5.19" transform="translate(-4.86 114.41) rotate(-88.23)"/><circle class="cls-2" cx="119.99" cy="47.85" r="5.28"/><circle class="cls-2" cx="86.81" cy="120.89" r="3.43"/><rect class="cls-2" x="70.11" y="53.84" width="0.86" height="40.12" transform="translate(-31.47 68.32) rotate(-43.2)"/><polygon class="cls-2" points="46.1 80.22 45.34 79.82 54.61 62.03 55.38 62.43 46.1 80.22"/><rect class="cls-2" x="77.25" y="65.14" width="53.15" height="0.86" transform="translate(-14.57 98.15) rotate(-47.66)"/><rect class="cls-2" x="86.52" y="56.29" width="0.86" height="30.35" transform="translate(-2.77 3.52) rotate(-2.28)"/><rect class="cls-2" x="50.46" y="79.69" width="0.86" height="35.04" transform="translate(-29.43 22.45) rotate(-19.42)"/><rect class="cls-2" x="56.77" y="100.78" width="35.27" height="0.86" transform="translate(-51.08 95.48) rotate(-51.06)"/><rect class="cls-2" x="93.01" y="80.77" width="0.86" height="31.54" transform="translate(-40.76 90.13) rotate(-43.2)"/><rect class="cls-2" x="84.5" y="114.5" width="21.23" height="0.86" transform="translate(-49.26 77.38) rotate(-35.81)"/><rect class="cls-2" x="65.58" y="120.54" width="21.16" height="0.86" transform="translate(-1.22 0.78) rotate(-0.58)"/><circle class="cls-1" cx="86.35" cy="55.75" r="6.63"/><circle class="cls-1" cx="45.92" cy="79.77" r="3.43"/><circle class="cls-1" cx="59.03" cy="120.06" r="4.18"/><circle class="cls-2" cx="59.03" cy="120.06" r="2.3"/><path class="cls-2" d="M59,127.09h-.22a7.28,7.28,0,1,1,.23,0Zm0-13.41a6.37,6.37,0,0,0-6.36,6.18h0a6.39,6.39,0,0,0,6.18,6.58,6.2,6.2,0,0,0,4.56-1.73,6.39,6.39,0,0,0-4.17-11H59Z"/><ellipse class="cls-1" cx="104.29" cy="108.06" rx="6.84" ry="6.83" transform="translate(-6.94 208.96) rotate(-88.23)"/></g></g></svg>