<svg xmlns="http://www.w3.org/2000/svg" viewBox="0 0 169.2 234.5"><defs><style>.cls-1{fill:#02384a;}.cls-2{fill:#f7a729;}</style></defs><g id="Layer_2" data-name="Layer 2"><g id="Layer_2-2" data-name="Layer 2"><path class="cls-1" d="M84.6,0a84.6,84.6,0,0,0,0,169.2h4.3a55.14,55.14,0,0,0,14.4-1.5l-.1-9v-6.1c-1.8.5-3.6.9-5.4,1.3a71,71,0,0,1-13.1,1.3,62.6,62.6,0,0,1-13.1-1.3A75.06,75.06,0,0,1,61,151.1c-2.1-.7-4.1-1.6-6.2-2.5a70.48,70.48,0,1,1,72.8-8,66.88,66.88,0,0,1-17.9,10l.1,9.5.1,5.5c33.7-11.2,59.3-43.5,59.3-80.8A84.87,84.87,0,0,0,84.6,0Z"/><path class="cls-1" d="M103.2,167.2v56.6a10.69,10.69,0,0,1-10.6,10.7h-16A10.63,10.63,0,0,1,66,223.8V177.4H78.6v39a5.36,5.36,0,0,0,5.3,5.4h.9a5.36,5.36,0,0,0,5.3-5.4V167.1h13.1Z"/><circle class="cls-2" cx="86.9" cy="88.4" r="11.9"/><circle class="cls-2" cx="56.34" cy="60.39" r="5.2" transform="translate(-5.77 114.84) rotate(-88.23)"/><circle class="cls-2" cx="119.8" cy="48.6" r="5.3"/><circle class="cls-2" cx="86.6" cy="121.6" r="3.4"/><rect class="cls-2" x="69.94" y="54.62" width="0.9" height="40.1" transform="translate(-32.04 68.4) rotate(-43.19)"/><rect class="cls-2" x="40.2" y="71.38" width="20.1" height="0.9" transform="translate(-36.67 83.2) rotate(-62.48)"/><rect class="cls-2" x="77.07" y="65.76" width="53.1" height="0.9" transform="translate(-15.11 98.21) rotate(-47.66)"/><rect class="cls-2" x="86.39" y="57" width="0.9" height="30.4" transform="translate(-2.8 3.51) rotate(-2.28)"/><rect class="cls-2" x="50.29" y="80.38" width="0.9" height="35" transform="translate(-29.66 22.44) rotate(-19.42)"/><rect class="cls-2" x="56.6" y="101.47" width="35.3" height="0.9" transform="translate(-51.69 95.61) rotate(-51.06)"/><rect class="cls-2" x="92.82" y="81.55" width="0.9" height="31.5" transform="translate(-41.33 90.21) rotate(-43.2)"/><rect class="cls-2" x="84.35" y="115.22" width="21.2" height="0.9" transform="translate(-49.74 77.47) rotate(-35.83)"/><rect class="cls-2" x="65.36" y="121.29" width="21.2" height="0.9" transform="translate(-1.23 0.78) rotate(-0.58)"/><circle class="cls-1" cx="86.2" cy="56.5" r="6.6"/><circle class="cls-1" cx="45.7" cy="80.5" r="3.4"/><circle class="cls-1" cx="58.8" cy="120.8" r="4.2"/><circle class="cls-2" cx="58.8" cy="120.8" r="2.3"/><path class="cls-2" d="M58.8,127.8h-.2a7,7,0,0,1-6.8-7.2h0a7,7,0,1,1,7,7.2Zm-6.4-7.2a6.4,6.4,0,1,0,6.6-6.2,6.45,6.45,0,0,0-6.6,6.2Z"/><circle class="cls-1" cx="104.1" cy="108.75" r="6.8" transform="translate(-7.82 209.44) rotate(-88.23)"/></g></g></svg>