<?xml version="1.0" standalone="no"?>
<!DOCTYPE svg PUBLIC "-//W3C//DTD SVG 20010904//EN"
 "http://www.w3.org/TR/2001/REC-SVG-20010904/DTD/svg10.dtd">
<svg version="1.0" xmlns="http://www.w3.org/2000/svg"
 width="940.000000pt" height="940.000000pt" viewBox="0 0 940.000000 940.000000"
 preserveAspectRatio="xMidYMid meet">
<metadata>
Created by potrace 1.14, written by Peter Selinger 2001-2017
</metadata>
<g transform="translate(0.000000,940.000000) scale(0.100000,-0.100000)"
fill="#000000" stroke="none">
<path d="M4478 9395 c-2 -1 -37 -5 -78 -9 -41 -3 -86 -8 -100 -10 -14 -2 -50
-7 -80 -11 -30 -4 -62 -8 -70 -10 -8 -2 -42 -8 -75 -14 -33 -6 -71 -14 -85
-17 -14 -3 -38 -8 -55 -11 -16 -3 -38 -9 -47 -14 -10 -5 -18 -7 -18 -5 0 3
-11 1 -25 -4 -14 -5 -38 -12 -53 -15 -37 -8 -41 -9 -87 -24 -63 -20 -65 -20
-68 -20 -3 0 -124 -46 -207 -78 -141 -56 -330 -152 -519 -264 -64 -37 -271
-186 -361 -259 -315 -255 -641 -648 -823 -994 -21 -38 -41 -74 -45 -80 -5 -6
-37 -76 -72 -156 -90 -208 -90 -207 -90 -218 0 -6 -9 -32 -20 -58 -11 -26 -22
-54 -24 -63 -2 -9 -6 -24 -10 -33 -4 -9 -9 -22 -10 -30 -2 -7 -6 -20 -9 -28
-3 -8 -11 -37 -17 -65 -7 -27 -14 -57 -16 -65 -12 -44 -54 -241 -59 -280 -3
-25 -8 -52 -10 -60 -2 -8 -6 -40 -9 -70 -3 -30 -9 -82 -13 -115 -15 -128 -7
-585 12 -715 3 -19 8 -55 10 -80 3 -25 14 -88 25 -140 11 -52 21 -106 24 -120
2 -14 10 -45 17 -70 7 -25 14 -51 15 -59 2 -12 9 -37 19 -71 1 -3 7 -25 14
-50 7 -25 17 -54 21 -65 13 -32 23 -59 25 -70 14 -56 135 -336 177 -407 15
-27 26 -48 24 -48 -3 0 20 -41 50 -90 30 -50 54 -95 54 -100 0 -6 5 -10 10
-10 6 0 10 -5 10 -10 0 -6 4 -16 10 -23 5 -7 31 -43 56 -82 62 -93 154 -214
227 -300 72 -84 311 -322 386 -385 155 -130 388 -290 531 -366 30 -16 57 -31
60 -34 7 -7 199 -100 202 -98 2 1 14 -5 28 -12 14 -8 27 -15 30 -16 6 -1 75
-30 110 -46 14 -6 30 -12 35 -14 6 -1 57 -18 115 -38 95 -33 314 -94 365 -102
11 -2 31 -5 45 -9 14 -3 40 -8 59 -11 18 -3 43 -8 55 -10 43 -9 105 -17 226
-30 103 -10 205 -15 370 -16 168 -2 175 -2 181 -22 3 -12 2 -33 -2 -48 -4 -15
-4 -30 1 -33 5 -3 5 -16 1 -28 -5 -12 -5 -34 -1 -49 5 -14 6 -29 3 -32 -3 -3
-5 -29 -4 -58 2 -29 2 -59 2 -65 -2 -25 -2 -39 -2 -108 1 -38 1 -79 0 -90 0
-11 0 -62 1 -114 0 -52 -1 -96 -4 -98 -2 -2 0 -20 4 -39 4 -19 4 -36 0 -39 -4
-3 -4 -22 1 -42 9 -43 9 -41 -1 -68 -3 -11 -4 -31 0 -45 4 -14 3 -37 -1 -52
-4 -15 -4 -30 1 -33 5 -3 5 -16 1 -28 -5 -12 -5 -34 -1 -49 5 -14 6 -29 3 -32
-3 -3 -5 -29 -4 -58 2 -29 2 -59 2 -65 -2 -25 -2 -39 -2 -108 1 -38 1 -79 0
-90 0 -11 0 -62 1 -114 0 -52 -1 -96 -4 -98 -2 -2 0 -20 4 -39 4 -19 4 -36 0
-39 -4 -3 -5 -20 -1 -37 12 -53 -11 -160 -42 -201 -44 -58 -87 -79 -176 -84
-52 -4 -81 -2 -85 6 -4 6 -16 11 -27 11 -29 0 -106 83 -118 127 -7 25 -11 312
-11 836 l0 797 -249 0 c-190 0 -250 -3 -253 -13 -6 -15 -1 -1917 4 -1937 27
-101 89 -199 157 -250 25 -19 73 -46 106 -60 l60 -25 384 -3 c373 -3 437 1
506 29 17 7 33 12 38 11 4 -1 7 2 7 8 0 5 7 10 15 10 8 0 15 5 15 10 0 6 5 10
11 10 32 0 153 160 164 217 2 10 4 18 5 18 10 0 12 247 14 1503 l2 1464 -25
-7 c-14 -3 -33 -7 -41 -9 -8 -1 -31 -6 -50 -11 -19 -5 -37 -9 -40 -10 -78 -18
-110 -24 -160 -31 -19 -2 -46 -7 -60 -9 -144 -27 -595 -27 -745 0 -16 3 -46 8
-65 11 -19 4 -44 8 -55 10 -11 2 -40 8 -65 13 -25 6 -56 13 -70 16 -14 3 -37
7 -51 10 -14 2 -79 21 -145 41 -282 85 -528 203 -766 367 -119 81 -131 90
-144 102 -6 5 -30 26 -54 45 -117 94 -252 227 -370 365 -79 92 -216 286 -283
400 -59 101 -197 403 -209 455 -2 8 -5 17 -8 20 -5 4 -20 49 -36 105 -17 57
-46 163 -49 175 -12 53 -37 179 -40 200 -2 14 -6 48 -10 75 -4 28 -9 59 -11
70 -7 36 -17 247 -16 345 0 126 11 267 27 370 13 82 37 211 45 245 6 22 12 47
14 56 26 106 97 317 139 409 70 156 164 337 191 370 7 8 15 22 18 30 7 19 125
183 197 275 76 96 318 336 421 419 109 87 315 224 416 277 43 22 83 44 89 48
19 15 241 108 320 135 44 15 87 30 95 33 8 3 20 7 25 9 6 1 62 16 125 32 100
27 184 43 330 66 78 13 214 20 375 20 203 0 286 -6 455 -34 30 -5 71 -12 90
-15 19 -3 43 -8 52 -11 9 -3 26 -7 37 -9 54 -10 215 -58 301 -88 461 -166 854
-430 1170 -786 36 -41 70 -79 75 -85 6 -6 22 -27 35 -46 13 -19 27 -37 31 -40
10 -8 153 -220 182 -270 28 -48 144 -280 172 -343 25 -57 66 -168 75 -203 4
-18 10 -37 14 -43 4 -6 9 -19 11 -28 2 -10 16 -63 30 -118 14 -55 28 -116 31
-135 3 -19 7 -37 9 -40 2 -3 6 -26 10 -50 3 -25 10 -72 15 -105 42 -275 28
-650 -35 -945 -3 -14 -7 -35 -10 -47 -33 -175 -148 -494 -242 -670 -16 -28
-41 -75 -57 -105 -33 -60 -182 -286 -223 -337 -218 -269 -436 -469 -694 -637
-114 -74 -259 -156 -276 -157 -7 0 -13 -3 -13 -6 0 -3 -15 -12 -32 -20 -18 -8
-55 -24 -83 -36 -27 -12 -67 -28 -87 -36 -21 -7 -39 -18 -39 -24 -2 -14 -1
-231 2 -426 l2 -167 66 23 c309 106 643 287 924 499 48 36 93 71 100 76 7 6
23 20 37 31 160 130 382 359 510 524 30 39 58 75 63 80 4 6 25 35 47 65 22 30
44 60 50 67 5 7 10 14 10 17 0 2 23 39 50 80 28 42 50 78 50 81 0 3 11 22 24
43 21 34 131 249 162 317 70 157 166 437 189 555 2 8 8 33 14 55 12 46 21 97
26 140 2 17 4 30 5 30 5 0 22 120 35 244 3 30 8 57 10 60 3 2 0 10 -6 18 -8 9
-8 13 -1 13 11 0 9 427 -2 537 -5 57 -23 191 -31 236 -3 15 -7 39 -10 54 -54
309 -171 653 -327 953 -83 162 -90 173 -187 320 -156 236 -378 491 -585 671
-21 19 -46 41 -55 50 -29 26 -183 142 -251 189 -36 25 -66 48 -68 53 -2 4 -8
7 -13 7 -4 0 -39 20 -76 44 -37 24 -90 56 -118 70 -27 15 -57 31 -65 36 -34
22 -225 110 -316 148 -168 69 -455 157 -574 177 -19 3 -53 10 -75 15 -70 15
-200 34 -315 46 -51 6 -527 14 -532 9z"/>
<path d="M6040 7652 c-118 -39 -174 -187 -114 -300 l23 -43 -37 -42 c-20 -23
-41 -47 -47 -53 -5 -6 -44 -48 -85 -93 -41 -45 -88 -97 -105 -115 -16 -17 -61
-67 -100 -110 -38 -43 -83 -92 -100 -110 -16 -18 -66 -72 -110 -120 -44 -49
-98 -108 -120 -131 -22 -24 -67 -73 -100 -111 -122 -138 -132 -146 -156 -133
-29 15 -75 28 -124 35 -22 4 -42 8 -45 11 -5 5 -7 34 -15 248 -3 83 -7 180 -9
218 -1 37 1 68 6 68 12 2 27 6 33 9 6 3 12 5 43 15 12 4 22 11 22 16 0 5 6 9
13 9 18 0 63 51 90 103 33 64 30 176 -6 238 -51 86 -124 131 -220 135 -264 12
-378 -327 -162 -478 38 -27 56 -34 118 -45 25 -5 28 -9 27 -47 -1 -46 7 -254
14 -394 6 -102 8 -98 -59 -106 -40 -4 -124 -34 -167 -58 -26 -15 -80 -62 -117
-101 l-26 -27 -80 86 c-44 48 -105 113 -135 144 -30 32 -80 84 -110 117 -30
32 -118 125 -195 207 -77 81 -141 151 -143 155 -1 4 6 27 16 50 46 102 -4 224
-110 270 -106 45 -228 -5 -273 -112 -33 -78 -16 -156 47 -223 l29 -31 -24 -44
c-13 -24 -68 -129 -122 -234 -54 -104 -102 -196 -107 -205 -7 -10 -26 -15 -58
-15 -34 0 -57 -6 -77 -21 -31 -23 -62 -80 -58 -104 2 -8 4 -26 4 -39 1 -29 71
-101 98 -101 15 0 24 -12 35 -47 9 -27 30 -86 48 -133 17 -47 33 -92 35 -100
4 -16 102 -296 112 -320 3 -8 7 -19 9 -25 4 -15 90 -258 97 -275 4 -8 16 -44
27 -80 12 -36 25 -74 30 -85 5 -11 16 -42 25 -70 9 -27 21 -58 26 -67 6 -13 1
-22 -27 -39 -42 -25 -84 -66 -84 -79 0 -6 -3 -10 -8 -10 -19 0 -51 -118 -46
-170 15 -150 132 -259 284 -263 101 -3 217 78 256 178 l16 43 186 2 c103 1
259 2 346 3 162 2 186 -2 186 -37 0 -7 14 -25 31 -42 27 -26 37 -29 91 -29 40
0 63 4 66 13 2 6 9 12 16 12 32 0 64 112 44 152 -6 13 -2 22 19 35 16 10 33
21 38 25 25 19 162 118 233 169 l78 57 35 -29 c104 -86 281 -73 369 28 77 88
94 199 45 299 -33 68 -65 99 -134 132 -75 35 -150 33 -229 -5 l-59 -28 -39 41
c-22 22 -69 73 -106 113 l-67 72 27 28 c108 110 154 223 147 369 -3 86 -11
117 -51 198 -26 54 -110 150 -148 171 -19 10 -18 12 8 44 16 19 52 59 80 90
28 30 89 98 136 149 47 52 96 106 110 121 14 15 61 67 105 115 44 49 89 98
100 109 11 12 54 59 95 105 41 46 84 93 95 105 11 11 56 60 99 108 65 70 84
86 100 81 12 -4 24 -11 27 -16 4 -6 35 -12 71 -14 97 -5 166 33 207 115 24 45
28 107 12 160 -33 108 -159 170 -271 133z m-2205 -957 c61 -64 130 -139 155
-165 25 -26 93 -99 152 -161 269 -286 252 -264 222 -304 -13 -18 -28 -63 -41
-125 -24 -112 10 -261 82 -361 l33 -46 -56 -70 c-32 -39 -70 -87 -87 -108 -16
-21 -52 -66 -80 -100 -27 -34 -66 -81 -85 -105 -19 -24 -43 -51 -52 -59 -10
-9 -18 -21 -18 -27 0 -7 -3 -14 -8 -16 -6 -2 -116 -134 -144 -173 -5 -5 -23
-28 -42 -49 l-33 -39 -48 23 c-34 17 -67 23 -123 25 l-75 2 -32 89 c-17 49
-34 96 -38 104 -5 13 -29 87 -32 100 -1 3 -4 12 -8 20 -25 67 -57 160 -63 185
-4 17 -10 35 -14 40 -4 6 -26 66 -49 135 -24 69 -47 134 -51 145 -5 11 -19 49
-30 85 -11 36 -25 74 -30 85 -26 58 -71 205 -65 214 3 6 12 11 19 11 19 0 51
31 68 65 13 26 15 50 9 102 0 7 -12 24 -25 39 l-24 28 75 146 c78 153 82 161
103 200 8 14 20 39 28 55 9 17 24 42 34 58 11 15 16 27 12 27 -5 0 -3 5 4 12
7 7 16 8 24 1 34 -25 135 -11 188 27 14 10 27 15 30 10 3 -4 55 -60 115 -125z
m657 -1208 c24 -24 103 -66 161 -86 108 -37 289 -16 382 45 23 15 25 14 82
-46 32 -35 79 -85 106 -112 41 -45 61 -88 39 -88 -4 0 -16 -19 -27 -42 -26
-57 -27 -179 -2 -227 9 -19 17 -37 17 -42 0 -4 -46 -40 -102 -80 -57 -40 -107
-77 -113 -81 -18 -14 -130 -94 -143 -102 -8 -5 -21 -1 -32 9 -29 26 -94 31
-140 10 -29 -13 -45 -30 -60 -61 -19 -39 -25 -43 -58 -43 -20 0 -176 -2 -345
-3 l-309 -3 -4 49 c-4 53 -35 127 -66 156 -19 17 -17 20 93 156 61 77 115 141
120 142 5 2 9 10 9 17 0 7 3 15 8 17 6 3 33 34 102 121 8 11 20 24 25 31 6 6
47 56 90 111 44 55 85 105 90 111 6 6 17 21 25 33 17 24 33 27 52 8z m-753
-686 c16 -9 23 -11 40 -11 21 0 110 -99 126 -140 18 -46 23 -139 8 -162 -4 -7
-8 -15 -9 -18 -18 -91 -138 -171 -250 -166 -100 5 -174 56 -220 153 -44 92
-23 206 50 279 68 68 191 99 255 65z"/>
<path d="M3614 4717 c-48 -19 -82 -51 -102 -98 -11 -24 -18 -48 -16 -54 1 -5
5 -26 8 -47 12 -67 91 -128 166 -128 58 0 120 41 149 97 15 29 17 102 3 133
-37 83 -130 126 -208 97z"/>
</g>
</svg>
